<mxfile host="app.diagrams.net" modified="2023-07-09T13:17:51.715Z" agent="Mozilla/5.0 (Windows NT 10.0; Win64; x64) AppleWebKit/537.36 (KHTML, like Gecko) Chrome/114.0.0.0 Safari/537.36" etag="KSmNVPEg8D06HOXEkHJz" version="21.6.1" type="github">
  <diagram name="Page-1" id="eASTi8wmPhL4DS5Ss_6Q">
    <mxGraphModel dx="1120" dy="427" grid="1" gridSize="10" guides="1" tooltips="1" connect="1" arrows="1" fold="1" page="1" pageScale="1" pageWidth="850" pageHeight="1100" math="0" shadow="0">
      <root>
        <mxCell id="0" />
        <mxCell id="1" parent="0" />
      </root>
    </mxGraphModel>
  </diagram>
</mxfile>
